<?xml version="1.0" encoding="UTF-8"?>
<svg width="896px" height="136px" viewBox="0 0 896 136" version="1.1" xmlns="http://www.w3.org/2000/svg" xmlns:xlink="http://www.w3.org/1999/xlink">
    <!-- Generator: Sketch 54.1 (76490) - https://sketchapp.com -->
    <title>浪潮云logo</title>
    <desc>Created with Sketch.</desc>
    <g id="页面1" stroke="none" stroke-width="1" fill="none" fill-rule="evenodd">
        <g id="浪潮云logo" fill="#0062AC" fill-rule="nonzero">
            <path d="M842.291003,45.9845261 L895.890599,45.9845261 L895.890599,81.8382488 C895.8608,91.6048983 887.952089,99.51563 878.185447,99.5479245 L814.061399,99.5479245 C804.291224,99.5205955 796.377024,91.608417 796.347199,81.8382488 L796.347199,17.7096758 C796.377036,7.94024629 804.291956,0.0293694974 814.061399,0.00452467406 L878.185447,0.00452467406 C887.95033,0.0368055024 895.858318,7.94479327 895.890599,17.7096758 L895.890599,32.9217171 L842.63488,32.9217171 C838.879379,33.0665075 836.680374,35.0980978 835.268668,36.0663836 C821.28282,45.6587477 816.065841,72.7074042 835.449656,87.6751118 C837.318357,89.1139663 840.59424,90.4442282 842.168836,90.5437716 L875.819029,90.5120987 L878.82343,90.5120987 C893.922354,88.9103549 894.478892,55.4094762 877.185489,54.8348392 L874.461619,54.7895922 L856.466888,54.7895922 C849.127824,55.3416056 849.363109,67.3139617 856.57548,67.522098 L876.226252,67.5130485 C880.886693,67.1782208 881.131027,76.7253377 876.18553,77.4492898 L843.598641,77.3633204 C828.98386,71.1282838 834.042474,48.3690429 842.291003,45.9845261 Z M805.60926,45.8849827 L820.595066,45.9438037 C822.594983,39.8083106 825.952311,35.6139137 830.296023,32.8900443 L805.60926,32.8900443 C799.509964,33.6320951 798.921753,44.8307275 805.60926,45.8849827 Z M825.110717,12.6601105 L825.110717,21.0308056 C825.110717,22.4244132 826.119725,23.5691623 827.350443,23.5691623 L887.347965,23.5691623 C888.578683,23.5691623 889.583167,22.4244131 889.583167,21.0308056 L889.583167,12.6601105 C889.583167,11.2574536 888.578683,10.1262786 887.347965,10.1262786 L827.350443,10.1262786 C826.119725,10.1262785 825.110717,11.2574535 825.110717,12.6601105 Z M363.423903,7.09020482 L392.653465,7.09020482 L383.0792,66.1827868 C382.201408,71.1373333 382.563384,72.8702934 384.029387,74.8385379 C385.260106,76.4900533 387.472684,77.6076543 389.970318,77.6302778 C397.322956,77.6302778 404.757038,77.657426 412.109675,77.657426 L423.444049,7.12640248 L452.632888,7.10377898 L438.457003,95.2539843 L375.260519,95.2358855 C368.5138,95.266286 362.119127,92.2279423 357.881146,86.978308 C354.510244,82.7205653 352.075956,76.9289493 353.673175,67.8931234 C357.003354,47.477677 360.093724,27.4966019 363.423903,7.09020482 Z M257.473528,7.08115548 L324.126884,7.02685912 C333.420618,7.01328497 338.243948,10.3253655 342.062795,14.3794966 C343.890774,16.3432164 345.433696,18.7684557 346.42913,21.6416401 C347.546731,24.8044055 348.012775,28.4965606 347.315971,32.6909574 C345.361301,45.305821 343.334236,57.2148314 341.30717,69.8387444 C339.886414,77.2049559 336.081141,82.7567628 331.357355,87.0869008 C329.115855,89.1107795 326.589878,90.795272 323.859927,92.0866943 C319.710777,94.1228093 314.53452,95.2223114 310.15461,95.2313608 L285.273285,95.2313608 C280.219195,95.2358855 276.196737,94.625051 272.748916,93.177147 C271.120024,104.122396 269.50923,115.07217 267.875814,126.021944 L236.836372,135.745524 L251.365183,45.5592042 L270.739949,35.4148269 L254.568671,24.5781703 L257.469004,7.0766308 L257.473528,7.08115548 Z M283.807282,24.6053186 L275.282748,77.6348025 C284.350246,77.7117223 292.965275,77.6529013 301.856311,77.6348025 C302.887942,77.6348025 303.924099,77.5443085 304.842613,77.2818759 C306.190973,76.8972764 307.349296,76.2049973 308.399027,75.4041254 C310.451089,73.8305164 311.874239,71.57626 312.412436,69.0469219 C314.258513,57.6130051 316.091017,46.1836129 317.93257,34.7406466 C318.262873,32.8809949 318.37599,31.0756396 317.864699,29.5236674 C317.551295,28.6063948 317.066047,27.7572102 316.434894,27.0215083 C315.204176,25.5283573 313.353573,24.6007938 310.864988,24.5917445 L283.807282,24.6053186 Z M144.971388,77.6981483 L198.833416,77.6348025 C201.337581,77.6439646 203.741131,76.6499541 205.507349,74.8747355 C207.371525,73.1055779 208.620343,70.7120115 208.96422,68.3093958 C209.267375,66.164688 208.452929,63.3322258 206.529931,61.6128398 C205.303737,60.5178624 203.561728,59.875355 201.557286,59.8844044 C191.091655,59.8753551 181.621458,59.8934538 171.151302,59.8934538 C162.29043,59.9587698 154.289174,54.6036689 150.97114,46.3872243 C149.654452,43.1746873 149.278902,39.4915815 149.487038,35.4826974 C149.722323,30.8901268 151.536728,26.288507 153.785503,22.487759 C159.445903,12.8727714 170.309708,7.13997664 180.648647,7.11282833 C202.982566,7.09020482 223.217025,7.0947295 245.550944,7.08115548 L242.691334,24.6279421 L188.865502,24.6234173 C185.186921,24.627942 181.96986,26.8178968 180.178078,29.8720693 C179.273138,31.414992 178.757323,33.1660509 178.657779,34.9668816 C178.499415,37.8626896 181.087543,42.3376179 186.087337,42.364766 C196.231714,42.3376178 207.095519,42.3738153 217.248945,42.351192 C222.434252,42.3738155 227.596934,44.5139985 231.420306,48.0658881 C234.728907,51.0788787 236.990685,55.0682945 237.877053,59.4545579 C238.433591,62.1784273 238.551233,64.9068214 238.130436,68.110309 C237.647169,71.4987922 236.607581,74.7841957 235.05364,77.8338893 C232.934173,81.9812034 229.929925,85.61256 226.253098,88.4714589 C220.986348,92.6296582 213.783025,95.2313607 207.385099,95.213262 C185.272891,95.1996878 164.296381,95.2223113 142.170599,95.2087373 L144.971388,77.6981483 Z M55.2465869,7.11282833 L119.243944,7.09020482 C129.922236,7.16260001 141.903641,16.7956864 140.446688,31.3018745 C137.08936,52.5770139 133.691311,73.9562214 130.243489,95.2313608 L101.072748,95.2313608 L110.945644,33.8130831 C111.488608,30.7770094 110.665112,28.5825299 109.3439,27.0667554 C107.959342,25.4604869 105.968474,24.6234173 103.552284,24.6279421 C95.9734115,24.6279421 89.163738,24.6053186 81.5803409,24.6053186 L70.2459674,95.2358855 L41.0752266,95.2358855 L55.2465869,7.11282833 Z M14.1849345,7.09472963 L43.3828235,7.09472963 L29.1752655,95.2313608 L0,95.2313608 L7.97252144,45.62255 L27.4106326,35.4329257 L11.356997,24.614368 L14.1804098,7.09472963 L14.1849345,7.09472963 Z M450.628446,95.2313608 L460.560163,33.5280269 C461.582745,26.9219649 465.469462,19.7819884 471.337998,14.9541334 C477.989307,9.49282054 486.450496,7.19427299 492.296409,7.11282833 L531.629626,7.10377898 L521.195667,24.6234173 L500.246307,24.614368 C497.621981,24.6686643 495.730656,25.3473694 493.966023,26.6866806 C492.187816,28.0395658 490.373411,29.8041989 489.667558,33.93525 C486.391675,54.264727 483.120317,74.897359 479.858008,95.2313608 L450.628446,95.2313608 Z M556.583346,21.1801207 C564.433701,24.5736458 572.732,29.1888397 581.383227,34.8990111 C581.352851,39.9635988 581.34531,45.0282978 581.360603,50.0929536 C572.686753,44.1655966 564.320583,39.8580822 556.565247,36.2835692 C556.574297,31.2928251 556.488327,26.1572906 556.583346,21.1801207 Z M581.369653,53.1923731 C581.347029,61.3730307 581.428474,67.5582955 581.40585,74.5037101 C572.302154,83.3494986 566.999205,88.245224 556.610494,95.0232246 C556.60597,88.2361747 556.52905,82.9151275 556.556198,76.6348438 C566.026395,70.0106831 572.112116,64.309561 581.369653,53.1923731 Z M692.966853,53.1923731 C692.989477,60.4183189 692.989477,67.7890552 692.980427,74.5263336 C685.503292,82.1295109 677.277944,88.9587021 668.429405,94.9101071 C668.415831,88.258798 668.393208,82.6210219 668.393208,76.5805473 C670.180464,75.2955325 672.044641,74.0014684 673.795699,72.5988113 C680.537502,67.2098936 686.967101,60.7440974 692.966853,53.1878484 L692.966853,53.1923731 Z M612.191909,5.75994309 L612.205483,0.104068034 L629.738696,0.0904940115 L629.75227,5.75994309 C635.543886,5.75994309 640.294821,5.79614075 646.095486,5.79614075 C650.140568,5.86401126 654.479755,9.47472184 654.488805,14.4564165 C654.402835,23.0080995 654.633595,31.4964367 654.579299,40.0526443 C654.565724,45.5546795 649.900759,48.8124635 646.050239,48.8169882 L604.898093,48.8486612 L604.875469,52.7353785 L616.693985,52.7399031 C619.951769,56.6311451 623.571529,60.3549732 626.779542,63.540362 C630.856296,59.6400706 633.489672,57.0428928 637.195401,52.7172796 L655.095114,52.7172796 C649.891709,60.1106395 643.127283,67.024381 636.869623,73.0558061 C644.801422,80.1641097 653.597439,87.4760249 662.058628,94.9463046 C654.276144,94.9463046 646.701796,94.8648599 638.901213,94.8648601 C627.693531,84.1186975 615.997182,72.1146686 604.843796,59.0835325 C604.821173,67.8162034 604.748778,75.3362549 604.843796,83.9512837 C604.798549,85.5620769 606.210256,86.6208566 608.124204,86.5846591 L618.553637,86.5756096 L615.440644,95.0006011 C608.744088,95.0006011 602.785058,95.0141752 596.093026,95.0141751 C592.450643,94.9779775 587.378454,91.969052 587.396553,86.177436 L587.342257,5.76446777 L612.191909,5.75994309 Z M604.920716,14.343299 L604.907142,23.1800381 L632.249904,23.1890874 L629.204781,31.5416836 L604.875469,31.5507331 L604.893568,40.2653053 C614.89768,40.2653053 624.485519,40.3196016 634.485106,40.3196016 C635.205903,40.3197567 635.894693,40.0219043 636.388274,39.4966174 C636.881856,38.9713305 637.136305,38.2653535 637.091333,37.5459605 C637.06871,30.1526007 637.023463,24.1980956 637.037037,16.800211 C637.037037,15.4563752 635.761071,14.343299 634.34484,14.3523483 L604.920716,14.343299 Z M668.302714,0.0361976576 C674.754936,2.95915381 685.568969,8.46118902 693.025674,13.8093844 C693.057347,19.2209256 693.003051,23.5827363 693.043773,29.003327 C684.967184,23.256958 674.777559,18.053553 668.284615,15.2346649 C668.316288,10.2529703 668.261991,5.00884296 668.302714,0.031672851 L668.302714,0.0361976576 Z M668.257467,21.1801207 C674.741362,23.9266137 685.70471,29.8856435 693.007576,34.8311406 C693.057347,40.2426818 692.948754,44.5773443 692.998526,49.9888855 C685.365357,44.7583324 675.352196,39.468958 668.230318,36.2745198 C668.248417,31.2928252 668.239368,26.1572907 668.252942,21.1801207 L668.257467,21.1801207 Z M740.666241,14.2663791 L740.67529,5.75994309 C749.466782,5.72827024 757.615767,5.80971477 766.407259,5.7825666 C768.081398,5.8051901 769.836981,6.54271621 771.149144,7.71913823 C772.72374,9.14441878 773.7056,11.2303055 773.7056,13.8908289 C773.696551,25.5600301 773.660353,37.0301446 773.673927,48.4821605 C773.696551,61.0744005 773.764421,73.6485418 773.687501,86.4670169 C773.664878,88.6388729 772.538227,91.0460133 771.054126,92.4577197 C769.47953,93.9508707 767.303149,94.9870269 765.33943,94.9779776 L755.796837,94.9689281 L755.819461,86.5891838 C757.326186,86.5846591 757.584094,86.6299061 759.086294,86.6208566 C760.80568,86.6208566 761.878034,85.2996442 761.891608,83.9286602 L761.900658,61.0110547 L752.380689,61.0201041 C752.26408,67.1352641 752.067993,73.2486502 751.792478,79.3587132 C751.647687,82.9648991 751.543619,86.6299061 751.340008,90.5075739 C747.24063,91.9464285 743.412734,93.4441042 739.322405,94.8874836 C740.163999,79.8835783 740.399283,65.2778468 740.544074,50.6132941 C740.652667,39.6635202 740.783883,28.6684991 740.679815,17.465342 L752.471183,17.4924902 L752.480232,29.3291054 L761.878034,29.3698277 L761.868985,14.2573296 L740.666241,14.2663791 Z M752.457609,37.6455039 L752.412362,52.6946561 L761.86446,52.6720326 L761.887084,37.6500287 L752.457609,37.6500287 L752.457609,37.6455039 Z M698.939457,5.74636894 L710.948011,5.73731959 L710.96611,0.0723951827 L722.743904,0.0950186856 L722.73033,5.73731959 L734.720785,5.72827024 L734.671013,14.3025766 L722.762003,14.343299 L722.73033,21.0670032 L727.300277,21.0579537 C728.816051,21.0805772 730.996957,21.822628 732.277447,23.0126242 C733.652956,24.2931142 734.784131,26.4694949 734.747933,28.7408943 L734.72531,62.8661818 L722.698657,62.8209348 L722.73033,71.3273706 L734.707211,71.322846 L734.71626,79.7025903 L722.775577,79.7025903 L722.775577,90.5980679 L710.943486,94.9236811 L710.95706,79.6528186 L698.966606,79.6392446 L698.993754,71.322846 L710.984209,71.3364201 L710.948011,62.8435583 L698.984704,62.8842805 L698.907784,20.9584104 L710.934437,20.9719845 L710.943486,14.3206755 L698.939457,14.3297248 L698.939457,5.75089374 L698.939457,5.74636894 Z M710.712727,46.1700387 L710.726301,54.5407338 L722.888694,54.5407338 L722.897744,46.1609893 L710.712727,46.1700387 Z M710.712727,29.3743524 L710.699153,37.8219672 L722.870596,37.7993437 L722.861546,29.3698277 L710.712727,29.3743524 Z M556.59692,0.00452467406 C563.972181,3.22611103 573.26139,8.30734917 581.383227,13.8229585 C581.32893,19.2344997 581.396801,23.4017484 581.374177,28.9354565 C573.530605,23.6337839 565.236651,19.0310786 556.587871,15.1803684 C556.556198,10.2031985 556.628593,4.98169465 556.59692,0.00452467406 Z" id="Shape"></path>
        </g>
    </g>
</svg>