<?xml version="1.0" standalone="no"?><!DOCTYPE svg PUBLIC "-//W3C//DTD SVG 1.1//EN" "http://www.w3.org/Graphics/SVG/1.1/DTD/svg11.dtd"><svg t="1560845593358" class="icon" style="" viewBox="0 0 1024 1024" version="1.1" xmlns="http://www.w3.org/2000/svg" p-id="7367" xmlns:xlink="http://www.w3.org/1999/xlink" width="200" height="200"><defs><style type="text/css"></style></defs><path d="M534.903467 739.293867v-120.490667l79.906133 80.600178 22.402844-22.414222L517.859556 557.511111 398.222222 676.989156l22.414222 22.414222 80.145067-80.600178V739.328L256 739.555556C115.2 739.555556 0 626.312533 0 487.947378c0-130.161778 98.304-234.689422 230.4-251.5968C281.6 135.395556 388.096 68.266667 512 68.266667c157.696 0 285.696 109.147022 315.904 251.608177C934.4 328.066844 1024 420.295111 1024 529.453511c0 117.3504-93.696 209.590044-213.504 209.590045l-275.592533 0.250311z" fill="#CCEDFB" p-id="7368"></path><path d="M523.377778 375.466667l256.193422 147.911111v295.822222L523.377778 967.111111 267.184356 819.2V523.377778z" fill="#00A0EB" p-id="7369"></path><path d="M637.212444 676.989156l-22.414222 22.414222-79.894755-80.600178v177.493333h-34.121956v-177.493333l-80.156444 80.600178L398.222222 676.977778 517.848178 557.511111z" fill="#FFFFFF" p-id="7370"></path><path d="M779.5712 739.066311v-34.133333l30.9248-0.022756c101.000533 0 179.370667-77.0048 179.370667-175.445333 0-89.941333-74.478933-168.618667-164.579556-175.559111l-25.474844-1.956978-5.302045-24.996978C766.987378 197.154133 650.399289 102.4 512 102.4c-108.987733 0-204.868267 58.106311-251.153067 149.390222l-8.192 16.110934-17.92 2.298311C118.306133 285.104356 34.133333 376.308622 34.133333 487.947378 34.133333 607.323022 133.916444 705.422222 255.988622 705.422222h11.195734v34.133334H256C115.2 739.555556 0 626.312533 0 487.947378c0-130.161778 98.304-234.689422 230.4-251.5968C281.6 135.395556 388.096 68.266667 512 68.266667c157.696 0 285.696 109.147022 315.904 251.608177C934.4 328.066844 1024 420.295111 1024 529.453511c0 117.3504-93.696 209.590044-213.504 209.590045l-30.9248 0.022755z" fill="#00A0EB" p-id="7371"></path></svg>