<?xml version="1.0" standalone="no"?><!DOCTYPE svg PUBLIC "-//W3C//DTD SVG 1.1//EN" "http://www.w3.org/Graphics/SVG/1.1/DTD/svg11.dtd"><svg t="1560845670077" class="icon" style="" viewBox="0 0 1024 1024" version="1.1" xmlns="http://www.w3.org/2000/svg" p-id="12665" xmlns:xlink="http://www.w3.org/1999/xlink" width="200" height="200"><defs><style type="text/css"></style></defs><path d="M256 853.333333C115.2 853.333333 0 740.090311 0 601.725156c0-130.161778 98.304-234.689422 230.4-251.5968C281.6 249.173333 388.096 182.044444 512 182.044444c157.696 0 285.696 109.147022 315.904 251.608178C934.4 441.844622 1024 534.072889 1024 643.231289c0 117.3504-93.696 209.590044-213.504 209.590044L256 853.333333z" fill="#61C5F8" p-id="12666"></path><path d="M256 853.333333C115.2 853.333333 0 740.090311 0 601.725156c0-130.161778 98.304-234.689422 230.4-251.5968C281.6 249.173333 388.096 182.044444 512 182.044444c157.696 0 285.696 109.147022 315.904 251.608178C934.4 441.844622 1024 534.072889 1024 643.231289c0 117.3504-93.696 209.590044-213.504 209.590044L256 853.333333z m554.496-34.645333c101.000533 0 179.370667-77.0048 179.370667-175.445333 0-89.941333-74.478933-168.618667-164.579556-175.559111l-25.474844-1.956978-5.302045-24.996978C766.987378 310.931911 650.399289 216.177778 512 216.177778c-108.987733 0-204.868267 58.106311-251.153067 149.390222l-8.192 16.110933-17.92 2.298311C118.306133 398.882133 34.133333 490.0864 34.133333 601.725156 34.133333 721.1008 133.916444 819.2 255.988622 819.2l554.507378-0.512z" fill="#00A0EB" p-id="12667"></path><path d="M596.912356 368.594489L347.773156 572.1088l133.552355 40.322844-104.300089 154.396445 266.569956-186.914133-140.026311-39.025778" fill="#FFFFFF" p-id="12668"></path></svg>