<?xml version="1.0" standalone="no"?><!DOCTYPE svg PUBLIC "-//W3C//DTD SVG 1.1//EN" "http://www.w3.org/Graphics/SVG/1.1/DTD/svg11.dtd"><svg t="1560845536801" class="icon" style="" viewBox="0 0 1024 1024" version="1.1" xmlns="http://www.w3.org/2000/svg" p-id="7256" xmlns:xlink="http://www.w3.org/1999/xlink" width="200" height="200"><defs><style type="text/css"></style></defs><path d="M915.137422 283.704889c25.224533 0 40.868978 14.222222 40.868978 40.868978V532.935111l-408.689778 0.079645V283.704889H465.578667v249.298489L56.888889 532.935111V324.573867c0-26.646756 15.610311-40.868978 40.868978-40.868978h204.344889c-50.722133-11.195733-99.714844-47.2064-101.114312-89.588622-1.422222-49.857422 51.825778-130.446222 129.558756-112.059734 80.270222 19.080533 136.305778 84.718933 179.291022 140.913778 43.326578-57.298489 104.709689-131.185778 188.450134-142.791111 70.007467-9.363911 127.886222 64.489244 120.365511 113.208889-6.417067 42.7008-58.527289 79.075556-107.861334 90.3168h204.344889z m-658.067911-74.5472c37.2736 40.459378 139.525689 37.523911 208.065422 29.957689-32.369778-42.712178-72.100978-90.3168-126.043022-112.833422-38.7072-16.110933-61.428622 1.183289-77.732978 29.627733-8.874667 16.145067-18.432 37.512533-4.289422 53.248zM555.235556 238.375822c28.694756 2.6624 57.833244 3.356444 86.641777 1.888711 35.111822-1.558756 100.090311-4.130133 120.604445-31.470933 26.646756-36.010667-25.4976-111.0016-81.6128-83.2512-53.589333 26.692267-92.273778 70.087111-125.633422 112.833422z" fill="#00A0EB" p-id="7257"></path><path d="M120.809244 948.485689c0 23.540622 6.826667 29.991822 28.194134 29.991822H465.009778V596.104533H120.809244v352.369778zM863.891911 978.488889c21.412978 0 28.194133-6.428444 28.194133-30.0032v-352.369778H547.851378v382.3616h316.040533z" fill="#CCEDFB" p-id="7258"></path><path d="M120.809244 948.485689c0 23.540622 6.826667 29.991822 28.194134 29.991822H465.009778V596.104533H120.809244v352.369778z m22.755556-329.614222H442.254222v336.850489H149.003378c-2.070756 0-3.754667-0.068267-5.085867-0.2048a57.491911 57.491911 0 0 1-0.352711-7.031467v-329.614222zM863.891911 978.488889c21.412978 0 28.194133-6.428444 28.194133-30.0032v-352.369778H547.851378v382.3616h316.040533zM570.606933 618.848711h298.723556v329.614222c0 2.958222-0.113778 5.290667-0.341333 7.054223a53.896533 53.896533 0 0 1-5.097245 0.193422H570.606933V618.860089z" fill="#00A0EB" p-id="7259"></path></svg>